<svg xmlns="http://www.w3.org/2000/svg" viewBox="0 0 148.64 64.47"><defs><style>.cls-1{fill:#fff;}</style></defs><g id="Layer_2" data-name="Layer 2"><g id="Layer_1-2" data-name="Layer 1"><path class="cls-1" d="M148,51.75a1.8,1.8,0,0,1-1.79.89c-1.32,0-1.66-1.19-1.66-3V42.25c0-4.09-2.55-6.56-6.51-6.68-6.22-.22-10.35,2.72-9.8,6.72a13.13,13.13,0,0,0,3.07.47,11.51,11.51,0,0,0,3-.47c-.38-3,.51-5,2.39-5,.93,0,1.53,1.4,1.53,3.58v3.32c-3.75.17-10.73,1.15-10.73,6.13a5.13,5.13,0,0,0,5.28,5.11,11.26,11.26,0,0,0,5.87-1.88,3.45,3.45,0,0,0,3.5,2.09c3.79,0,5.49-1.19,6.51-3.06Zm-11.54.63a2.92,2.92,0,0,1-3-3.06c0-2.85,2.39-4,4.73-4l0,6.47A3.16,3.16,0,0,1,136.46,52.38ZM51.73,28.74a11,11,0,0,0,9.49-5.83l-.68-.6c-1.41,2.09-3.07,3.07-4.17,3.15-5.16.39-7.24-2.59-7.8-6.38l12.78-.22c0-6-3.41-10-8.73-10-6.47,0-10.56,4.26-10.56,10.9C42.06,25.25,45.85,28.74,51.73,28.74Zm.55-18.09c4.26,0,5.36,6.89,1.11,7.06H48.45C48.36,13.5,49.89,10.65,52.28,10.65Zm17.2,16.9c-3.11,0-5.36-3.24-6.21-5.58-.26,0-.39,0-.52,0L63,27A10.05,10.05,0,0,0,69.06,29c5.57,0,9.11-2.56,9.11-6.6a6.46,6.46,0,0,0-4.34-5.71c-3.62-1.45-6-2.43-5.92-3.88s1.61-3,4.13-2.89,3.87,3.23,5,5.41h.64l.17-4.69c-1.32-1.49-4.22-2.13-6-2.13-5.54,0-9,2.77-9,6.43,0,2.22,2.52,4.86,6.35,6.35,2.17.85,3.58,2.17,3.58,3.36C72.85,26.4,71.53,27.55,69.48,27.55Zm51.1,5.16a3.12,3.12,0,0,0,3.28-3.4,3.3,3.3,0,1,0-6.6,0A3.13,3.13,0,0,0,120.58,32.71Zm-1.64-2.84a.38.38,0,0,1,.3.15,1.9,1.9,0,0,0,1.33.54,2,2,0,0,0,1.34-.53.38.38,0,0,1,.3-.15.38.38,0,0,1,.38.38.36.36,0,0,1-.12.28,2.65,2.65,0,0,1-1.9.78,2.69,2.69,0,0,1-1.9-.79.36.36,0,0,1-.11-.28A.38.38,0,0,1,118.94,29.87Zm-101-18.16c-1.15,1.45-4.35,2.3-8.31,2.51V3H13.5c4.55,0,8.56,1.75,10.05,4.6l.42.81a3.16,3.16,0,0,0,.51,0c-.08-2.38-.21-4.77-.34-7.15H0v.47a6.49,6.49,0,0,0,0,.8l.39.05C2,2.77,2.9,5.37,2.9,9.15v11.5C2.9,24.44,2,27,.43,27.21l-.39,0a6.79,6.79,0,0,0,0,.81v.47H12.94v-.47a6.79,6.79,0,0,0,0-.81l-.47,0c-1.7-.17-2.81-2.77-2.81-6.56V16c4,.3,7.07,1.36,8.31,2.85l.34.51s.51.05,1,.05V11.24c-.51,0-1,0-1,0ZM126.37,53.79c-1.49-.17-2.47-2.77-2.47-6.56V35.69h-1.19L115,38.84a2.61,2.61,0,0,0,0,.43l.39.21c2.08,1.15,2.51,2.17,2.51,7.5,0,3.83-.9,6.64-2.51,6.81l-.39,0a6.79,6.79,0,0,0,0,.81v.47h11.88v-.47a6.79,6.79,0,0,0,0-.81ZM101.88,28.53v-.47a6.79,6.79,0,0,0,0-.81l-.42,0C99.88,27,99,24.44,99,20.65V15.46c0-4-1.24-6.56-4.6-6.56a9.24,9.24,0,0,0-7.07,2.94V0H86.09L78.38,3.15a2.07,2.07,0,0,0,0,.43l.38.21c2.09,1.15,2.52,2.17,2.52,7.45v9.41c0,3.79-.94,6.39-2.47,6.56l-.39,0v1.28H90V27.24l-.25,0c-1.49-.17-2.47-2.77-2.47-6.56V13.58c1.06-1.44,2-2,2.85-2,1.75,0,2.81,2.43,2.81,4.52v4.55c0,3.79-.94,6.26-2.47,6.56h0v1.32Zm-19.45,30a5.73,5.73,0,0,0-2,.42,9.74,9.74,0,0,1-3.83.85c-4.65,0-7.71-4-9.84-7.7A11.61,11.61,0,0,1,66,47.23V42c0-4-1.23-6.56-4.6-6.56-3.15,0-6.6,2.13-8.09,3.7-.51-2.34-1.83-3.7-4.3-3.7a9.16,9.16,0,0,0-7.24,3.15V35.69H40.57l-7.7,3.15a2.07,2.07,0,0,0,0,.43l.38.21c2.09,1.15,2.51,2.17,2.51,7.45,0,3.88-.89,6.69-2.51,6.86l-.38,0a6.79,6.79,0,0,0,0,.81v.47H44.7V53.83l-.47,0c-1.49-.13-2.47-2.77-2.47-6.56V40.38c1.15-1.62,2.18-2.26,3-2.26,1.74,0,2.81,2.43,2.81,4.56v4.55c0,3.79-.77,6.26-2.3,6.56l-.21,0v1.28H56.63V53.83l-.56,0c-1.53-.13-2.47-2.77-2.47-6.56V42a11,11,0,0,0,0-1.15C54.79,39,56,38.33,57,38.33c1.79,0,3,2.26,3,4.35v4.55c0,3.79-.94,6.43-2.47,6.56l-.51,0v1.28c4.3.3,7.45-1.23,11.45,1.75,3,4,7.67,8.26,13,7.53a3.51,3.51,0,0,0,3.28-4.17C84.6,59,83.58,58.52,82.43,58.52ZM83.08,62a2.68,2.68,0,0,1-3.75.64.37.37,0,0,1-.16-.25.38.38,0,0,1,.31-.44.4.4,0,0,1,.33.1,1.94,1.94,0,0,0,2.63-.45.38.38,0,1,1,.64.4ZM88,52.64c-1.32,0-1.66-1.19-1.66-3V42.25c0-4.09-2.55-6.56-6.51-6.68-6.22-.22-10.35,2.72-9.8,6.72a13.13,13.13,0,0,0,3.07.47,11.51,11.51,0,0,0,3-.47c-.38-3,.51-5,2.39-5,.93,0,1.53,1.4,1.53,3.58v3.32c-3.75.17-10.73,1.15-10.73,6.13a5.13,5.13,0,0,0,5.28,5.11,11.26,11.26,0,0,0,5.87-1.88,3.45,3.45,0,0,0,3.5,2.09c3.79,0,5.49-1.19,6.51-3.06l-.64-.81A1.8,1.8,0,0,1,88,52.64Zm-9.75-.26a2.92,2.92,0,0,1-3-3.06c0-2.85,2.39-4,4.73-4l0,6.47A3.16,3.16,0,0,1,78.21,52.38Zm-45-24.32a6.79,6.79,0,0,0,0-.81l-.43,0c-1.53-.17-2.47-2.77-2.47-6.56v-7c3.49-1.14,4.48.58,6.08,1.88s4.43,1.84,5.5-.3-.59-5.29-4.28-6-6.25,2.12-7.3,3.65V9.11H29l-7.71,3.15a1.67,1.67,0,0,0,.05.43l.38.21c2.09,1.15,2.47,2.17,2.47,7.45,0,3.88-.85,6.69-2.47,6.86l-.38,0a5.45,5.45,0,0,0-.05.81v.47H33.17ZM38.67,11a.35.35,0,0,1,.3,0,2.59,2.59,0,0,1,1.57,1.33,2.68,2.68,0,0,1,.17,2.05.39.39,0,0,1-.71.06.35.35,0,0,1,0-.33,1.95,1.95,0,0,0-1.22-2.38.37.37,0,0,1-.27-.2A.38.38,0,0,1,38.67,11ZM114,53.79c-1.53-.17-2.47-2.77-2.47-6.56V42c0-4-1.23-6.56-4.6-6.56a9.16,9.16,0,0,0-7.24,3.15V35.69H98.48l-7.71,3.15a1.67,1.67,0,0,0,0,.43l.42.21c2.09,1.07,2.47,2.17,2.47,7.45,0,3.88-.89,6.69-2.47,6.86l-.42,0a5.45,5.45,0,0,0,0,.81v.47h11.71V53.83l-.34,0c-1.53-.17-2.47-2.77-2.47-6.56V40.38c1.15-1.62,2.17-2.26,3-2.26,1.74,0,2.81,2.43,2.81,4.56v4.55c0,3.79-.81,6.3-2.35,6.56l-.25,0v1.28h11.54v-.47a6.79,6.79,0,0,0,0-.81Z"/></g></g></svg>